PathFileType	4	(X/Y/Z)	C:\Users\Basilio\Documents\Thesis Gigler\squatting_fais\c3dfiles\073\SLS_front_pre1\markers_experimental.trc
DataRate	CameraRate	NumFrames	NumMarkers	Units	OrigDataRate	OrigDataStartFrame	OrigNumFrames
200.000000	200.000000	4	61	mm	200.000000	348	1395
Frame#	Time	FHD			LBHD			RBHD			C7			T10			CLAV			LSHO			LUUPA			LMUPA			LDUPA			LLEP			LMEP			LRAD			LUL			LRFIN			RSHO			RUPA1			RMUPA			RDUPA			RLEP			RMEP			RUL			RUFIN			LASI			RASI			USACR			LSACR			RSACR			LTHI1			LTHI2			LTHI3			LTHI4			LLFC			LMFC			LTIB1			LTIB2			LTIB3			LTIB4			LLMAL			LMMAL			LHEE			LMT1			LMT2			LMT5			RTHI			RTHI2			RTHI3			RTHI4			RLFC			RMFC			RTIB1			RTIB2			RTIB3			RTIB4			RLMAL			RMMAL			RHEE			RMT1			RMT2			RMT5			RRAD			
		X1	Y1	Z1	X2	Y2	Z2	X3	Y3	Z3	X4	Y4	Z4	X5	Y5	Z5	X6	Y6	Z6	X7	Y7	Z7	X8	Y8	Z8	X9	Y9	Z9	X10	Y10	Z10	X11	Y11	Z11	X12	Y12	Z12	X13	Y13	Z13	X14	Y14	Z14	X15	Y15	Z15	X16	Y16	Z16	X17	Y17	Z17	X18	Y18	Z18	X19	Y19	Z19	X20	Y20	Z20	X21	Y21	Z21	X22	Y22	Z22	X23	Y23	Z23	X24	Y24	Z24	X25	Y25	Z25	X26	Y26	Z26	X27	Y27	Z27	X28	Y28	Z28	X29	Y29	Z29	X30	Y30	Z30	X31	Y31	Z31	X32	Y32	Z32	X33	Y33	Z33	X34	Y34	Z34	X35	Y35	Z35	X36	Y36	Z36	X37	Y37	Z37	X38	Y38	Z38	X39	Y39	Z39	X40	Y40	Z40	X41	Y41	Z41	X42	Y42	Z42	X43	Y43	Z43	X44	Y44	Z44	X45	Y45	Z45	X46	Y46	Z46	X47	Y47	Z47	X48	Y48	Z48	X49	Y49	Z49	X50	Y50	Z50	X51	Y51	Z51	X52	Y52	Z52	X53	Y53	Z53	X54	Y54	Z54	X55	Y55	Z55	X56	Y56	Z56	X57	Y57	Z57	X58	Y58	Z58	X59	Y59	Z59	X60	Y60	Z60	X61	Y61	Z61	

349	1.74	-240.0780639648438	1648.489501953125	-773.5959472656252	-374.0469360351563	1619.23095703125	-804.538024902344	-402.8815002441407	1597.747924804688	-672.5181274414064	-433.9967041015626	1503.422729492188	-738.7488403320314	-514.0651855468751	1174.139892578125	-749.3246459960939	-315.5946044921876	1410.25439453125	-737.4064941406251	-335.9152832031251	1457.471435546875	-885.1008911132815	-250.4585723876954	1379.848876953125	-973.6961059570315	-210.3569030761719	1400.129272460938	-950.6960449218752	-187.52685546875	1351.806762695313	-979.9348754882815	-83.62937164306642	1326.333740234375	-979.1854248046877	-88.78112792968751	1272.969482421875	-932.4464111328127	175.0337524414063	1351.471923828125	-867.2671508789065	179.5349884033203	1346.8291015625	-941.7468261718752	255.4762420654297	1361.747680664063	-859.199890136719	-331.9584350585938	1447.343017578125	-590.4740600585939	-238.501449584961	1348.5283203125	-497.0530700683595	-200.0032043457032	1372.098022460938	-513.9952392578126	-174.7892303466797	1322.310302734375	-492.2739868164064	-82.23467254638673	1307.762329101563	-494.4552307128907	-85.80467224121095	1254.108032226563	-557.0273437500001	179.4314575195313	1348.630615234375	-536.8175659179689	259.4553222656251	1366.635986328125	-615.7078247070314	-355.6926879882813	1023.5908203125	-888.369567871094	-351.4007873535157	996.926696777344	-638.2378540039064	-537.5545043945314	1056.135986328125	-755.9945068359376	-547.0687255859376	1028.973388671875	-786.708679199219	-548.7030639648439	1021.72607421875	-731.1189575195314	-238.2567749023438	762.3934326171876	-947.6990356445315	-166.8593902587891	722.6470336914064	-926.2527465820315	-140.3044738769532	748.2749633789064	-892.3294677734377	-158.1693267822266	663.8206787109376	-919.964782714844	-124.4600219726563	614.6327514648439	-920.7376098632815	-131.9708099365235	602.3772583007814	-782.055847167969	25.77753829956055	477.0944824218751	-868.2355957031252	2.523303747177124	412.4285888671876	-923.4331665039065	39.07904434204102	429.1032714843751	-900.9690551757815	83.15540313720705	364.2716369628907	-867.7674560546877	98.56687164306643	231.5697326660157	-895.3280029296877	91.97463226318361	255.2312011718751	-811.0134887695315	65.17038726806642	172.5118560791016	-854.5779418945315	255.0223846435547	284.2443237304688	-804.8313598632815	257.8894958496094	286.5210876464844	-844.216735839844	242.2771148681641	248.9734039306641	-898.776306152344	-376.6506652832032	756.4569702148439	-587.0447387695314	-325.1602172851563	715.2973632812501	-585.4118041992189	-293.6101074218751	727.7907714843751	-585.7379760742189	-323.0785217285157	635.6931152343751	-612.0177001953126	-269.3590393066407	500.5107727050782	-631.0592651367189	-252.8785247802735	503.6402587890626	-759.7619018554689	-247.4563598632813	344.9240417480469	-734.5576171875001	-289.2541198730469	262.8632507324219	-678.5468139648439	-263.2268981933594	260.7136840820313	-719.2368164062501	-289.5430297851563	224.7174987792969	-756.9984130859376	-363.7687072753907	97.88899230957034	-718.8802490234376	-350.7749328613282	132.6621551513672	-802.8504028320315	-433.6259765625001	83.72753143310548	-780.5538330078127	-208.8601531982422	57.25757980346681	-784.858093261719	-211.0127868652344	51.9827117919922	-743.9501953125001	-256.5299987792969	32.89865493774415	-698.6342773437501	168.9532928466797	1343.829223632813	-610.9212036132814	
350	1.745	-239.7735595703126	1647.173828125	-773.6638793945315	-373.7125244140626	1618.01025390625	-804.6500244140627	-402.5746459960939	1596.689453125	-672.8983154296876	-433.6417846679689	1502.301147460938	-738.8656005859376	-514.3353881835939	1173.265991210938	-749.4768676757814	-315.2746582031251	1409.038818359375	-737.3899536132814	-335.6205749511719	1456.272705078125	-885.1594238281252	-250.1981964111329	1378.744018554688	-973.821960449219	-210.0877990722657	1399.109375	-950.7539672851565	-187.3401794433594	1350.625	-980.037292480469	-83.34913635253908	1325.285766601563	-979.311218261719	-88.3694534301758	1271.86572265625	-932.5246582031252	175.5124206542969	1350.407836914063	-867.1570434570315	179.8208160400391	1345.890014648438	-941.641296386719	255.8860778808594	1360.736206054688	-859.0382080078127	-331.6759643554688	1446.081420898438	-590.7481079101564	-238.2575988769532	1347.461791992188	-497.1675720214845	-199.7943267822266	1371.010009765625	-514.0977783203126	-174.5352935791016	1321.40625	-492.4010620117189	-81.98889923095705	1306.71337890625	-494.3946533203126	-85.48547363281251	1253.123657226563	-557.1017456054689	179.6222686767578	1347.778686523438	-536.9165649414064	259.6832275390626	1365.775634765625	-615.8611450195314	-356.3317565917969	1022.546936035156	-888.3828125000002	-351.9783020019532	995.8355712890627	-638.3358154296876	-538.0880737304689	1055.065307617188	-756.0565185546876	-547.5189819335939	1027.801879882813	-786.7551269531252	-549.1251220703126	1020.716125488281	-731.1815185546876	-238.1704864501954	761.8690185546876	-947.7175903320315	-166.6257934570313	722.3482055664064	-926.302673339844	-140.1388092041016	748.0697631835939	-892.342712402344	-157.6889038085938	663.5940551757814	-919.8453369140627	-123.6590118408203	614.5435791015626	-920.7659301757815	-131.2989501953125	602.2274169921876	-782.013122558594	26.9382724761963	477.3692932128907	-868.2783203125002	3.531946897506715	412.6427307128907	-923.2502441406252	40.25670242309571	429.3621520996095	-900.7559814453127	84.42705535888673	364.5977783203126	-867.6395263671877	100.2685089111328	232.0610656738282	-895.3837890625002	93.41201782226564	255.6335449218751	-810.8486328125002	66.83636474609376	172.8501281738282	-854.7082519531252	257.6121826171876	284.6954345703126	-805.955017089844	259.7023620605469	287.3763122558594	-844.3406372070315	243.7395324707032	249.709701538086	-898.6672363281252	-376.1791076660157	755.5364990234376	-587.1010742187501	-324.4938964843751	714.5798339843751	-585.6777343750001	-293.0073852539063	727.1547241210939	-585.9746093750001	-322.1338500976563	634.9895629882814	-612.1195678710939	-267.9828186035157	500.0250549316407	-631.2741699218751	-251.6674804687501	503.2283325195314	-759.9545288085939	-246.4776000976563	344.5883178710938	-734.9028930664064	-288.5780639648438	262.5758666992188	-678.7481079101564	-262.6254272460938	260.3845520019532	-719.5948486328126	-289.2106933593751	224.5225982666016	-757.1699218750001	-363.6726684570313	97.88153076171878	-718.9584350585939	-350.6953125000001	132.601318359375	-803.0168457031252	-433.6210021972657	83.70811462402345	-780.5598144531252	-208.8647613525391	57.20188140869142	-784.9099121093752	-211.0117950439454	51.99572372436525	-743.9882202148439	-256.5349426269532	32.94707489013673	-698.6376953125001	169.2166595458985	1343.155151367188	-610.7711791992189	
351	1.75	-237.3783416748047	1646.078857421875	-773.8643188476565	-373.2780456542969	1616.6708984375	-804.6768798828127	-402.0892944335939	1595.280395507813	-672.7814331054689	-433.2882690429689	1501.044189453125	-739.0042114257814	-514.6558227539064	1172.318115234375	-749.5769653320314	-315.1476745605469	1407.5888671875	-737.6284179687501	-335.2680358886719	1455.069946289063	-885.1692504882815	-249.8016510009766	1377.674072265625	-973.8982543945315	-209.7823028564454	1398.01708984375	-950.7740478515627	-186.9451446533203	1349.615478515625	-980.0166015625002	-82.99509429931642	1324.345825195313	-979.307800292969	-87.95281982421876	1270.760131835938	-932.6671142578127	175.7162475585938	1349.417236328125	-867.2073974609377	180.2264251708985	1344.853759765625	-941.4747314453127	256.3410339355469	1359.602661132813	-858.5361328125002	-331.4145507812501	1444.962036132813	-590.8027343750001	-238.0614166259766	1346.434936523438	-497.2795715332032	-199.4955139160157	1369.933959960938	-514.1305541992189	-174.3525695800782	1320.303344726563	-492.5024414062501	-81.71298217773439	1305.7861328125	-494.5273742675782	-85.22861480712892	1252.006225585938	-557.0374755859376	179.9229888916016	1346.9296875	-536.9818115234376	259.9096374511719	1364.993286132813	-615.9594726562501	-356.8562011718751	1021.40283203125	-888.4129638671877	-352.3925170898438	994.6883544921877	-638.4404296875001	-538.5549316406251	1054.10400390625	-756.2304077148439	-547.9813232421876	1026.894165039063	-786.8143310546877	-549.5869140625001	1019.554138183594	-731.1853027343751	-237.9673919677735	761.2989501953126	-947.654724121094	-166.2350158691407	722.0380249023439	-926.2353515625002	-139.9327545166016	747.8532104492189	-892.350769042969	-157.1662902832032	663.3607788085939	-919.8569946289065	-123.0073852539063	614.3247070312501	-920.7437744140627	-130.5971374511719	602.0762329101564	-782.0000000000002	27.85124778747559	477.5751342773439	-868.215026855469	4.698945999145509	412.6658020019532	-923.2122802734377	41.40088272094727	429.6336364746095	-900.6169433593752	85.55824279785158	364.9925537109376	-867.528015136719	101.8009490966797	232.4328155517579	-895.1104736328127	94.83581542968751	255.9431457519532	-810.741638183594	68.42257690429689	173.0904998779297	-854.7022094726565	257.9428100585938	285.6400146484376	-804.5953369140627	260.8273010253907	288.0207214355469	-843.7896118164065	245.0223999023438	250.3743591308594	-898.2723388671877	-375.7061462402344	754.5480957031251	-587.2055053710939	-323.5871582031251	713.8430786132814	-586.0527343750001	-292.3148498535157	726.5021362304689	-586.4465332031251	-321.0459289550782	634.1948852539064	-612.2709960937501	-266.4020690917969	499.5119934082032	-631.4276123046876	-250.4680480957032	502.8468627929689	-759.9849243164064	-245.6820983886719	344.0180358886719	-735.2448120117189	-287.9106445312501	262.2615051269532	-678.9189453125001	-261.9468688964844	260.0635986328126	-719.8386840820314	-288.7996215820313	224.3068389892579	-757.4135742187501	-363.5980529785157	97.84887695312503	-719.0350952148439	-350.9152832031251	132.5887756347657	-803.2847290039065	-433.6086730957032	83.67596435546876	-780.618103027344	-208.9898376464844	57.09424972534181	-784.5087890625002	-211.0050354003907	52.00076293945314	-743.9976806640626	-256.5388183593751	32.96015930175782	-698.6403808593751	169.3563385009766	1341.957275390625	-611.1763305664064	
352	1.755	-239.6495513916016	1644.486938476563	-773.8666992187502	-373.0174255371094	1615.423217773438	-804.7819824218752	-401.7443847656251	1594.11181640625	-672.9967651367189	-432.9537048339845	1499.892211914063	-739.1198120117189	-515.0346069335939	1171.203979492188	-749.6658325195314	-314.9952392578126	1406.3388671875	-737.6668701171876	-334.9948730468751	1453.808837890625	-885.190612792969	-249.4591522216797	1376.457397460938	-973.9827270507815	-209.4785766601563	1396.7880859375	-950.7371215820315	-186.6256866455078	1348.543090820313	-980.0428466796877	-82.53421783447267	1323.120361328125	-979.3110961914065	-87.61025238037111	1269.648681640625	-932.6443481445315	176.0367126464844	1348.5673828125	-866.9505004882815	180.46826171875	1344.026977539063	-941.3743896484377	256.3591003417969	1358.83447265625	-858.800720214844	-331.1742858886719	1443.766357421875	-591.1288452148439	-237.8588409423829	1345.328369140625	-497.3511352539064	-199.3224182128907	1368.8984375	-514.3436279296876	-174.1270599365235	1319.208374023438	-492.5066833496095	-81.51544189453126	1304.792602539063	-494.6679687500001	-85.0203323364258	1251.007202148438	-557.0974731445314	180.161605834961	1346.080322265625	-537.1207885742189	260.1527709960938	1364.04931640625	-616.0982666015626	-357.2921142578126	1020.414733886719	-888.4554443359377	-352.8819580078126	993.6687622070315	-638.5598754882814	-539.0384521484376	1052.889282226563	-756.2073364257814	-548.4703369140626	1025.661010742188	-786.8638916015627	-550.0751953125001	1018.43310546875	-731.2762451171876	-237.6869049072266	760.7543945312501	-947.6799316406252	-165.8847351074219	721.5786132812501	-925.885437011719	-139.7043609619141	747.6237182617189	-892.3597412109377	-156.5515594482422	663.1577148437501	-919.8455810546877	-122.2553787231446	614.2775878906251	-920.6155395507815	-129.9870910644532	601.9471435546876	-781.915954589844	28.88030433654786	477.7986755371095	-868.0213623046877	5.518879890441895	412.7739562988282	-923.2256469726565	42.42235946655274	429.8680725097657	-900.5374145507815	86.7621307373047	365.2938842773438	-867.2105102539065	103.0540847778321	232.8795928955079	-895.070495605469	96.21905517578128	256.1943969726563	-810.7741699218752	70.14817047119142	173.4258117675782	-854.5774536132815	259.2491760253907	286.3193359375001	-804.426940917969	262.1130981445313	288.7482299804688	-843.6971435546877	246.4813842773438	251.2015228271485	-898.133483886719	-375.1826171875001	753.4235839843751	-587.2863769531251	-322.8700256347657	713.0056152343751	-586.2827148437501	-291.7073059082032	725.8009643554689	-586.5671386718751	-320.0726623535157	633.3771972656251	-612.3082275390626	-264.9226989746094	498.9781799316407	-631.4652099609376	-249.4016418457032	502.5060119628907	-760.1843872070314	-244.8376922607422	343.5517272949219	-735.3452148437501	-287.2078552246094	261.8814392089844	-679.1439208984376	-261.2251281738282	259.6265258789063	-719.9331054687501	-288.3525390625001	224.0960388183594	-757.6090698242189	-363.5250244140626	97.83137512207034	-719.1191406250001	-350.8161315917969	132.5088500976563	-803.3867187500002	-433.5665588378907	83.62913513183595	-780.6335449218752	-209.0113677978516	57.03330230712892	-784.593200683594	-211.0094451904297	51.98196411132814	-744.0122680664064	-256.5384521484376	32.95995330810548	-698.6380004882814	169.7109527587891	1341.14111328125	-611.2869873046876	
